<?xml version="1.0" standalone="no"?>
<!DOCTYPE svg PUBLIC "-//W3C//DTD SVG 20010904//EN"
 "http://www.w3.org/TR/2001/REC-SVG-20010904/DTD/svg10.dtd">
<svg version="1.0" xmlns="http://www.w3.org/2000/svg"
 width="2048.000000pt" height="1536.000000pt" viewBox="0 0 2048.000000 1536.000000"
 preserveAspectRatio="xMidYMid meet">

<g transform="translate(0.000000,1536.000000) scale(0.100000,-0.100000)"
fill="#000000" stroke="none">
<path d="M713 14931 c-47 -22 -70 -58 -80 -126 -8 -61 18 -130 57 -150 33 -17
115 -19 178 -5 61 14 105 -7 127 -63 32 -80 36 -222 33 -1163 -4 -840 -5 -934
-21 -980 -25 -75 -54 -97 -119 -93 -29 1 -84 3 -121 3 -65 1 -70 -1 -97 -31
-68 -76 -41 -209 50 -255 47 -24 98 -22 269 7 179 31 211 31 397 0 171 -29
221 -31 268 -11 111 46 131 240 29 282 -30 13 -55 14 -123 8 -112 -10 -120 -8
-151 27 -44 50 -51 113 -56 520 -6 411 -3 439 45 457 42 17 325 25 422 13 176
-23 242 -67 280 -188 19 -59 23 -105 31 -338 13 -422 34 -569 92 -666 52 -87
87 -99 314 -112 179 -10 191 -10 228 9 50 25 76 61 82 117 7 55 -10 107 -43
138 -27 25 -53 28 -197 20 -45 -3 -62 0 -78 15 -60 54 -73 129 -89 529 -18
430 -46 501 -234 595 -59 30 -74 41 -60 46 193 66 340 220 389 409 37 141 37
372 0 517 -57 221 -215 384 -431 443 -95 26 -266 29 -574 10 -290 -18 -383
-16 -530 10 -43 8 -116 17 -162 20 -70 5 -90 3 -125 -14z m1180 -285 c225 -43
333 -176 352 -431 13 -161 -39 -326 -131 -420 -92 -95 -186 -117 -517 -119
l-199 -1 -24 28 -24 28 0 387 c0 436 -1 432 76 485 74 52 307 73 467 43z"/>
<path d="M11015 14930 c-58 -24 -100 -108 -88 -174 14 -76 50 -100 155 -101
89 -2 111 -15 128 -74 6 -20 13 -151 17 -291 l6 -255 -50 46 c-102 91 -223
139 -354 139 -109 0 -173 -14 -266 -60 -299 -147 -483 -551 -483 -1062 0 -454
149 -821 403 -994 109 -73 304 -107 428 -74 75 20 176 80 249 147 l70 65 0
-70 c0 -55 4 -75 21 -96 24 -31 51 -33 139 -10 54 14 75 14 168 3 142 -18 188
-16 221 8 70 53 65 213 -9 250 -14 7 -59 13 -102 13 -72 0 -78 2 -101 30 -14
16 -30 52 -36 80 -15 67 -15 1049 0 1834 11 589 11 599 -9 625 -23 30 -49 32
-179 10 -73 -11 -93 -11 -171 4 -97 19 -127 20 -157 7z m-50 -1045 c140 -68
226 -239 255 -507 13 -125 13 -390 -1 -498 -33 -272 -133 -462 -277 -528 -74
-33 -183 -35 -254 -4 -148 65 -243 248 -278 534 -17 133 -8 478 15 578 52 231
168 400 305 445 65 21 169 13 235 -20z"/>
<path d="M13068 14924 c-15 -8 -35 -29 -44 -46 -22 -42 -22 -134 0 -175 17
-34 28 -39 111 -46 64 -6 81 -28 90 -112 4 -35 10 -599 14 -1253 6 -1112 7
-1190 24 -1215 28 -43 61 -59 122 -59 93 -1 132 42 143 154 l5 61 36 -43 c93
-112 222 -172 371 -171 164 0 280 50 406 176 158 156 257 382 294 670 16 127
14 418 -4 547 -36 252 -112 447 -231 591 -121 147 -267 217 -450 217 -146 0
-269 -49 -377 -149 l-58 -53 0 53 c0 30 5 225 10 433 9 334 8 382 -5 402 -22
34 -53 38 -139 19 -70 -16 -81 -16 -154 -1 -96 20 -129 20 -164 0z m960 -1009
c109 -33 219 -175 271 -350 50 -171 69 -483 41 -683 -55 -404 -269 -633 -516
-556 -85 26 -169 111 -212 214 -101 246 -119 768 -36 1058 52 180 137 284 264
323 43 13 134 10 188 -6z"/>
<path d="M3675 14210 c-296 -60 -522 -348 -607 -775 -30 -149 -32 -506 -4
-660 55 -305 187 -540 371 -661 153 -101 378 -125 566 -60 189 66 373 257 439
456 31 93 38 243 13 290 -24 46 -75 73 -129 66 -95 -12 -119 -43 -165 -210
-25 -92 -42 -134 -74 -180 -134 -197 -394 -221 -558 -53 -59 60 -119 171 -142
262 -21 82 -38 251 -30 303 12 80 -11 76 577 82 460 4 519 7 534 21 45 46 39
346 -10 544 -75 297 -266 515 -498 570 -67 16 -216 18 -283 5z m258 -308 c62
-28 144 -111 185 -189 57 -108 80 -289 43 -334 l-19 -24 -348 -3 c-375 -3
-396 -1 -412 47 -27 78 56 312 146 412 80 90 154 121 277 116 54 -2 95 -10
128 -25z"/>
<path d="M5455 14214 c-189 -40 -330 -137 -436 -299 -125 -192 -185 -422 -196
-745 -8 -247 14 -434 73 -615 91 -278 274 -468 502 -521 85 -20 239 -20 317 1
184 48 355 193 445 380 49 101 69 181 76 297 8 162 -39 238 -147 238 -40 0
-55 -6 -83 -30 -42 -37 -51 -64 -70 -201 -22 -158 -67 -254 -152 -329 -64 -55
-118 -74 -214 -74 -106 -1 -177 29 -249 103 -52 54 -120 175 -145 261 -44 146
-62 373 -47 560 35 415 192 677 419 697 128 12 233 -51 297 -179 19 -39 35
-78 35 -87 0 -9 -22 -28 -49 -43 -67 -37 -96 -96 -95 -193 1 -166 122 -258
277 -211 69 21 103 50 137 119 56 114 58 329 4 477 -92 256 -306 402 -583 399
-53 -1 -105 -3 -116 -5z"/>
<path d="M7152 14205 c-144 -32 -292 -136 -386 -269 -134 -188 -202 -425 -213
-741 -16 -447 86 -785 303 -999 68 -67 166 -126 256 -153 117 -34 299 -33 413
3 235 75 421 308 499 625 37 150 48 252 48 444 0 381 -74 642 -243 861 -72 94
-182 171 -305 215 -78 28 -279 36 -372 14z m268 -287 c166 -50 300 -274 340
-571 17 -118 14 -374 -4 -487 -53 -331 -204 -534 -413 -556 -109 -12 -211 31
-294 124 -129 144 -192 368 -192 692 0 198 16 310 64 454 95 283 278 410 499
344z"/>
<path d="M9178 14201 c-77 -25 -136 -61 -208 -127 l-60 -56 0 54 c0 30 -5 70
-11 88 l-12 32 -56 -8 c-70 -10 -189 -10 -303 1 l-87 8 -40 -39 c-47 -48 -61
-108 -40 -176 19 -59 62 -81 141 -72 78 9 112 -6 135 -59 16 -39 18 -91 21
-684 3 -652 -1 -771 -33 -802 -11 -11 -43 -18 -110 -21 -87 -5 -98 -8 -122
-33 -23 -23 -28 -37 -31 -95 -9 -152 48 -181 283 -147 132 19 294 19 419 -1
135 -22 189 -16 229 25 29 28 32 38 35 103 6 134 -45 171 -202 149 -150 -21
-164 -1 -177 244 -12 231 -11 659 2 814 29 361 135 536 334 549 62 4 81 1 119
-18 87 -42 146 -141 146 -246 0 -45 -10 -58 -55 -68 -87 -21 -135 -86 -135
-183 0 -113 71 -197 176 -209 65 -8 115 8 166 54 80 72 128 212 128 372 0 278
-138 485 -369 554 -74 22 -210 20 -283 -3z"/>
<path d="M14804 14156 c-31 -31 -34 -39 -34 -92 0 -110 55 -160 163 -149 81 8
121 -12 162 -81 21 -34 73 -194 164 -500 74 -247 183 -613 243 -814 l110 -365
-5 -105 c-7 -163 -67 -307 -175 -418 -71 -73 -121 -96 -208 -97 -62 0 -75 3
-107 28 l-37 28 29 37 c72 92 68 222 -9 303 -48 50 -103 66 -173 50 -69 -15
-115 -54 -152 -127 -28 -55 -30 -67 -29 -164 1 -118 19 -182 78 -267 41 -61
138 -135 213 -163 71 -27 196 -36 278 -21 186 34 353 187 479 439 117 234 181
427 462 1397 119 413 225 767 235 787 26 50 59 72 99 63 85 -19 177 2 199 44
37 68 16 172 -41 205 -28 17 -43 18 -152 10 -151 -10 -330 -10 -506 0 -147 8
-166 4 -203 -45 -25 -34 -27 -112 -3 -157 9 -18 31 -42 49 -53 27 -17 43 -19
102 -14 85 7 115 -8 115 -58 0 -47 -333 -1429 -341 -1414 -10 17 -335 1278
-350 1354 -10 55 -9 66 5 88 15 23 22 25 102 25 96 0 124 12 145 63 18 43 16
125 -4 163 -32 61 -96 66 -344 28 -122 -18 -122 -18 -265 4 -79 12 -169 22
-202 22 -53 0 -61 -3 -92 -34z"/>
<path d="M3870 9755 c-258 -44 -483 -176 -766 -448 -187 -178 -375 -410 -654
-802 -174 -245 -333 -456 -442 -587 -101 -121 -286 -313 -294 -305 -3 2 19 41
49 85 116 174 199 369 371 878 154 458 149 443 216 581 73 152 158 277 247
365 102 101 153 134 306 196 30 13 36 32 10 32 -31 0 -196 -47 -276 -79 -115
-46 -183 -82 -298 -160 -319 -214 -529 -474 -1004 -1244 -88 -142 -197 -309
-243 -370 -136 -182 -281 -319 -389 -367 -65 -29 -165 -43 -211 -30 -63 17
-68 24 -43 55 33 43 29 108 -8 146 -72 72 -184 -4 -166 -113 15 -89 87 -129
229 -129 162 0 274 49 426 185 126 114 207 225 445 611 311 507 427 676 592
871 150 179 321 329 484 425 70 42 248 123 255 116 2 -2 -40 -30 -93 -63 -121
-73 -292 -239 -375 -364 -138 -208 -200 -358 -333 -815 -155 -532 -234 -749
-329 -901 -22 -36 -24 -43 -11 -54 12 -10 31 0 107 63 233 188 469 463 793
922 357 507 641 827 917 1035 137 103 276 175 378 194 31 6 28 3 -25 -26 -150
-84 -236 -160 -344 -302 -139 -183 -236 -369 -396 -756 -191 -463 -289 -648
-443 -842 -68 -85 -148 -156 -240 -212 l-60 -36 -100 6 c-116 8 -152 2 -152
-26 0 -26 49 -38 114 -28 28 4 133 12 233 17 228 12 345 32 500 83 337 111
592 332 772 670 34 64 48 99 41 103 -14 8 -7 18 -65 -90 -242 -454 -650 -711
-1165 -731 l-125 -6 81 45 c136 74 204 126 315 236 181 182 286 361 449 766
113 282 189 450 281 620 143 264 281 440 385 491 52 25 60 26 137 19 179 -18
222 -10 200 38 -21 45 -133 58 -283 32z"/>
<path d="M4831 9730 c-205 -29 -477 -177 -658 -358 -235 -236 -318 -484 -220
-656 52 -91 146 -127 279 -106 86 13 159 48 232 109 53 46 136 138 136 153 0
17 -16 5 -94 -75 -107 -108 -208 -157 -329 -157 -152 0 -226 136 -183 335 61
288 414 612 761 700 155 40 240 29 282 -34 28 -42 31 -121 7 -202 -42 -143
-221 -436 -500 -820 -305 -419 -468 -682 -508 -818 -45 -154 13 -298 134 -331
68 -18 187 -13 265 11 229 70 534 304 804 614 58 67 51 53 -50 -100 -48 -72
-151 -229 -231 -350 -250 -382 -405 -582 -586 -757 -232 -224 -444 -319 -642
-289 -163 26 -261 98 -311 229 -18 49 -20 72 -17 158 5 121 34 192 99 248 75
64 163 70 294 21 77 -29 75 -29 75 -9 0 20 -107 68 -188 84 -175 35 -350 -48
-421 -199 -23 -49 -26 -68 -26 -161 0 -95 3 -111 28 -161 68 -139 218 -228
417 -247 454 -45 854 227 1371 928 79 107 1412 2151 1425 2185 5 13 -8 15 -97
15 l-104 0 -389 -598 c-214 -328 -425 -649 -469 -712 -307 -442 -750 -816
-1037 -876 -68 -14 -78 -14 -118 2 -33 12 -48 25 -58 50 -57 136 52 350 502
979 287 401 372 531 453 693 72 145 90 246 62 350 -16 57 -75 115 -137 135
-63 21 -172 28 -253 17z"/>
<path d="M8670 9705 c-119 -31 -138 -33 -419 -44 -532 -21 -919 -81 -1269
-197 -239 -79 -413 -174 -534 -292 -123 -119 -174 -230 -165 -362 9 -135 76
-234 200 -295 149 -73 328 -67 493 18 115 60 204 156 249 267 20 52 23 154 6
218 -14 48 -37 53 -34 6 12 -137 8 -179 -20 -236 -55 -112 -161 -204 -292
-254 -95 -37 -230 -40 -291 -7 -87 46 -144 145 -144 247 1 274 225 499 647
652 107 39 355 102 518 133 220 41 604 82 764 80 l76 0 -65 -23 c-183 -63
-312 -147 -470 -306 -177 -176 -315 -370 -620 -870 -389 -638 -551 -832 -770
-921 -99 -40 -252 -26 -312 28 -24 21 -23 50 2 58 11 4 27 19 35 35 52 100
-45 197 -144 146 -42 -22 -61 -58 -61 -118 0 -130 126 -210 330 -209 154 1
297 51 437 155 272 200 463 447 917 1191 184 300 285 442 406 568 201 210 320
272 550 287 69 5 133 11 143 15 23 9 22 42 -2 55 -24 12 -10 14 -161 -25z"/>
<path d="M10500 9729 c-238 -22 -473 -88 -699 -195 -63 -30 -115 -54 -116 -54
-1 0 0 21 2 48 10 102 -86 171 -250 180 -191 10 -357 -68 -572 -269 -61 -57
-351 -372 -415 -451 -45 -55 -203 -190 -293 -249 -125 -83 -191 -102 -347
-103 -118 -1 -125 -2 -125 -21 0 -18 8 -21 80 -25 135 -9 175 -46 175 -165 0
-86 -20 -143 -137 -389 -118 -247 -133 -291 -133 -375 0 -75 18 -113 72 -154
46 -34 98 -49 171 -48 171 1 425 166 717 467 180 186 340 378 325 392 -4 4
-19 -9 -34 -28 -116 -153 -410 -454 -564 -579 -99 -80 -233 -164 -305 -192
-32 -12 -81 -22 -111 -22 -47 -1 -56 2 -77 26 -18 22 -24 40 -24 78 0 59 13
95 119 339 95 218 110 284 93 397 -15 95 -52 165 -115 215 -27 21 -53 38 -58
38 -5 0 -9 5 -9 10 0 6 15 10 33 10 76 0 230 39 331 84 214 95 390 245 675
575 289 334 371 401 494 401 65 0 105 -17 136 -56 28 -36 29 -116 1 -161 -18
-30 -18 -33 -2 -42 9 -5 15 -11 12 -13 -3 -2 -30 -22 -60 -44 -289 -206 -464
-478 -478 -739 -8 -161 26 -264 117 -355 88 -88 203 -126 351 -117 141 9 251
59 364 166 130 124 214 297 232 482 6 64 5 69 -13 69 -18 0 -21 -9 -27 -69
-21 -226 -163 -453 -346 -550 -158 -84 -352 -80 -454 10 -87 76 -128 232 -107
400 22 168 75 294 192 448 212 283 638 509 1094 582 103 17 387 17 488 0 70
-11 200 -49 227 -66 6 -4 -27 -29 -72 -56 -177 -106 -315 -235 -492 -455 -113
-142 -301 -426 -456 -689 -146 -249 -323 -518 -414 -631 -162 -201 -308 -303
-448 -312 -90 -5 -148 9 -193 49 -39 35 -45 59 -15 59 27 0 60 55 60 101 0 72
-79 116 -153 86 -49 -21 -69 -55 -69 -118 1 -80 40 -135 126 -179 67 -34 72
-35 185 -35 127 0 212 20 321 75 115 58 269 186 396 328 157 176 254 316 530
763 378 614 518 802 692 926 l63 46 25 -24 c69 -65 99 -161 92 -297 -10 -176
-69 -313 -188 -433 -126 -128 -276 -184 -469 -177 -111 4 -135 -13 -47 -33 68
-15 122 -45 150 -82 18 -24 21 -43 21 -125 0 -111 -2 -116 -116 -407 -81 -208
-109 -298 -109 -350 0 -92 59 -175 143 -200 179 -53 386 34 630 265 l97 92 0
-59 c0 -92 24 -157 78 -213 56 -57 100 -72 211 -71 98 1 174 21 275 74 158 82
314 220 426 379 54 75 150 260 150 289 0 30 12 27 56 -18 25 -24 64 -53 87
-63 58 -27 179 -27 249 0 28 11 53 18 54 17 1 -1 -21 -44 -51 -96 -143 -250
-159 -408 -54 -511 184 -178 616 -17 915 341 78 94 156 220 179 290 l17 49 28
-20 c16 -11 55 -33 87 -48 77 -35 202 -37 276 -4 27 12 47 19 45 15 -1 -5 -33
-53 -69 -109 -145 -220 -199 -337 -199 -429 0 -149 145 -201 325 -117 87 41
172 100 287 199 l98 84 -86 -136 c-47 -75 -88 -143 -91 -151 -4 -11 12 -14 89
-14 l95 0 60 103 c116 195 277 410 458 611 236 261 445 394 561 356 40 -13 54
-35 54 -82 -1 -66 -38 -128 -209 -347 -246 -314 -295 -409 -270 -520 21 -94
92 -143 207 -142 144 0 268 75 488 295 202 202 481 554 453 572 -7 4 -15 0
-20 -8 -19 -35 -151 -204 -259 -333 -125 -149 -280 -304 -370 -372 -158 -118
-333 -155 -369 -77 -31 70 -5 120 234 444 179 242 245 360 245 436 0 33 -26
93 -53 122 -38 41 -75 54 -151 54 -120 -1 -227 -53 -391 -192 -80 -68 -135
-127 -294 -312 -45 -54 -85 -98 -88 -98 -3 0 -1 6 4 13 64 81 403 560 399 564
-3 3 -48 2 -100 -2 l-95 -7 -102 -161 c-266 -418 -300 -466 -421 -583 -173
-168 -330 -279 -435 -310 -87 -25 -126 -1 -125 77 1 77 76 201 403 669 102
146 194 277 203 293 l18 27 -99 0 -99 0 -108 -160 c-59 -88 -125 -173 -146
-190 -126 -99 -290 -101 -417 -4 l-34 25 7 87 c12 166 -29 264 -111 264 -77 0
-107 -79 -69 -183 47 -133 -94 -429 -316 -663 -140 -147 -257 -225 -370 -246
-67 -13 -101 -6 -140 27 -66 55 -60 156 19 320 62 127 114 209 586 933 210
322 426 653 479 735 l97 150 -92 3 c-51 1 -98 1 -104 -2 -12 -4 -675 -1004
-864 -1303 l-103 -163 -66 -32 c-82 -41 -187 -50 -257 -23 -65 24 -121 92
-135 163 -32 161 -70 222 -162 262 -66 28 -186 31 -274 5 -261 -76 -522 -311
-671 -604 -44 -87 -68 -121 -136 -189 -202 -205 -384 -313 -526 -312 -55 1
-78 16 -92 61 -15 52 -3 108 71 329 38 113 81 245 95 294 56 197 16 339 -117
415 l-50 29 74 6 c193 18 343 66 450 145 163 121 236 280 226 493 -4 89 -9
112 -36 169 -30 63 -108 149 -172 190 l-25 16 50 25 c48 24 150 60 208 72 15
4 27 11 27 16 0 6 -12 8 -27 4 -93 -21 -156 -39 -226 -65 l-81 -29 -60 24
c-84 33 -189 54 -331 66 -134 11 -182 11 -305 -1z m1839 -1187 c95 -48 96
-206 1 -439 -94 -230 -268 -453 -431 -550 -65 -39 -169 -67 -214 -59 -75 14
-111 91 -101 214 24 296 345 741 598 832 67 24 104 25 147 2z"/>
<path d="M15071 9146 c-70 -39 -67 -147 6 -181 44 -21 85 -12 118 27 72 85
-26 208 -124 154z"/>
</g>
</svg>
