<?xml version="1.0" standalone="no"?>
<!DOCTYPE svg PUBLIC "-//W3C//DTD SVG 20010904//EN"
 "http://www.w3.org/TR/2001/REC-SVG-20010904/DTD/svg10.dtd">
<svg version="1.0" xmlns="http://www.w3.org/2000/svg"
 width="1897.000000pt" height="862.000000pt" viewBox="0 0 1897.000000 862.000000"
 preserveAspectRatio="xMidYMid meet">

<g transform="translate(0.000000,862.000000) scale(0.100000,-0.100000)"
fill="#000000" stroke="none">
<path d="M0 4310 l0 -4310 9485 0 9485 0 0 4310 0 4310 -9485 0 -9485 0 0
-4310z m907 3935 c198 -29 258 -30 594 -9 289 18 522 14 614 -10 92 -25 214
-89 279 -148 69 -61 143 -169 174 -254 74 -203 82 -491 20 -694 -57 -187 -197
-334 -387 -406 l-55 -21 76 -36 c230 -111 256 -184 278 -792 13 -350 32 -429
110 -467 30 -14 46 -15 120 -6 100 13 129 8 172 -31 30 -27 33 -34 36 -102 4
-95 -15 -135 -78 -166 -51 -27 -105 -29 -325 -13 -117 9 -149 14 -193 36 -138
67 -172 214 -191 824 -10 303 -19 366 -66 446 -32 54 -90 91 -183 116 -67 18
-104 20 -292 20 -237 -1 -286 -9 -307 -52 -10 -19 -13 -116 -13 -390 0 -648
18 -715 191 -690 101 15 150 12 187 -10 103 -63 70 -263 -51 -309 -44 -17
-130 -13 -287 14 -183 31 -271 31 -446 0 -245 -44 -319 -30 -372 70 -21 40
-20 141 1 181 27 52 75 68 176 59 132 -13 148 -11 176 15 39 37 55 110 65 306
12 232 12 1656 0 1888 -11 209 -26 272 -72 311 -28 24 -38 26 -78 21 -181 -26
-233 -17 -267 47 -21 41 -22 151 0 192 47 91 114 101 394 60z m11240 -2 c91
-15 111 -16 185 -4 46 8 105 15 132 15 41 1 52 -3 68 -25 20 -26 20 -38 8
-780 -6 -415 -10 -1022 -8 -1349 3 -585 3 -596 25 -642 11 -25 32 -52 45 -59
13 -7 60 -13 110 -13 77 -1 89 -4 112 -25 35 -33 50 -83 43 -149 -7 -66 -29
-100 -82 -126 -35 -18 -46 -18 -119 -8 -165 23 -209 24 -279 8 -148 -35 -177
-15 -177 118 l0 80 -62 -61 c-78 -76 -169 -135 -256 -165 -94 -32 -256 -33
-357 -1 -278 88 -494 394 -572 813 -24 130 -29 484 -9 635 64 479 291 832 600
931 214 69 418 30 592 -114 l67 -55 -7 267 c-7 296 -15 352 -52 387 -23 21
-36 24 -116 26 -104 3 -132 15 -155 71 -20 48 -13 134 14 170 29 40 82 72 117
72 17 0 77 -8 133 -17z m2279 0 c80 -15 90 -15 157 0 103 24 131 23 157 -10
22 -28 22 -30 16 -323 -3 -162 -9 -380 -12 -485 l-6 -190 33 35 c119 124 249
186 414 196 411 26 708 -314 791 -903 22 -158 22 -459 0 -613 -78 -555 -383
-920 -767 -920 -157 0 -268 47 -380 160 l-77 77 -4 -67 c-8 -112 -46 -159
-136 -168 -72 -6 -118 12 -150 60 l-26 41 -3 731 c-3 1134 -13 1942 -24 1999
-5 28 -16 58 -23 65 -8 8 -46 18 -85 22 -46 5 -79 14 -92 25 -42 39 -49 157
-14 224 32 62 87 73 231 44z m-10273 -789 c280 -64 488 -298 572 -645 43 -179
57 -481 25 -565 -19 -49 -17 -49 -627 -54 -568 -5 -573 -5 -594 -26 -38 -39
-35 -225 6 -389 42 -164 153 -318 273 -377 62 -31 73 -33 172 -33 98 0 110 2
171 32 79 39 160 120 194 195 13 29 38 105 55 168 33 124 48 152 101 188 29
20 44 23 96 20 53 -3 68 -9 93 -33 41 -39 54 -92 46 -191 -14 -192 -101 -363
-259 -510 -90 -84 -176 -136 -282 -171 -70 -23 -97 -27 -215 -27 -227 -1 -345
47 -500 204 -221 223 -320 530 -320 988 1 374 71 651 226 884 185 278 476 408
767 342z m2025 -19 c156 -50 307 -180 380 -327 55 -112 76 -207 76 -348 -1
-280 -88 -404 -284 -404 -71 0 -107 14 -154 61 -47 46 -66 98 -66 183 0 118
45 196 134 230 14 5 26 14 26 19 0 29 -47 128 -85 180 -35 47 -57 66 -110 92
-59 29 -76 33 -143 32 -130 -1 -226 -53 -307 -168 -131 -183 -189 -418 -189
-760 0 -273 33 -448 116 -608 87 -166 201 -249 353 -255 45 -2 99 1 120 7 66
18 146 72 192 131 60 78 91 162 113 309 10 70 23 138 29 152 50 132 225 141
282 15 23 -52 26 -213 4 -314 -48 -232 -218 -457 -421 -560 -103 -52 -172 -67
-314 -67 -113 0 -147 4 -210 23 -114 36 -195 86 -286 176 -213 213 -314 531
-314 987 0 337 45 576 149 789 122 250 295 396 531 446 102 21 275 12 378 -21z
m1897 11 c114 -30 222 -93 310 -181 164 -163 264 -382 317 -695 20 -118 17
-561 -5 -680 -39 -212 -116 -412 -211 -544 -82 -114 -203 -214 -321 -263 -167
-70 -407 -69 -579 4 -218 91 -393 316 -480 615 -45 155 -58 252 -63 479 -9
371 34 607 154 841 124 242 297 383 533 433 81 18 261 13 345 -9z m2146 10
c199 -43 357 -204 416 -426 24 -89 23 -300 0 -389 -50 -188 -169 -296 -304
-277 -135 18 -221 145 -193 283 17 82 76 138 166 157 39 9 48 43 34 130 -24
150 -141 245 -285 234 -167 -14 -273 -127 -331 -355 -40 -160 -46 -270 -42
-808 5 -533 7 -555 55 -603 24 -24 28 -24 96 -16 115 14 188 10 219 -10 73
-48 77 -205 8 -271 -26 -25 -40 -30 -94 -33 -36 -2 -107 3 -159 12 -118 20
-330 21 -457 1 -52 -8 -124 -15 -160 -15 -111 0 -160 49 -160 162 0 108 58
164 158 153 71 -7 127 9 150 42 16 25 17 82 17 813 l0 785 -22 41 c-12 23 -29
44 -38 48 -9 3 -57 6 -106 6 -129 0 -163 31 -163 145 0 73 29 124 86 153 l46
23 127 -17 c120 -17 134 -17 224 -2 121 21 124 19 129 -92 2 -44 6 -80 8 -80
2 0 24 20 50 46 153 148 328 201 525 160z m6257 -47 c144 -24 188 -24 342 2
165 28 257 30 293 6 47 -30 62 -65 61 -137 -1 -124 -50 -167 -178 -157 -113
10 -136 -17 -111 -136 21 -103 377 -1480 385 -1490 7 -8 370 1490 378 1559 7
61 -19 75 -131 72 -93 -3 -117 7 -160 64 -43 57 -31 166 23 211 38 32 94 39
215 27 208 -22 316 -23 473 -6 154 17 194 15 243 -10 55 -28 77 -142 41 -214
-28 -57 -70 -72 -180 -65 l-93 6 -29 -31 c-37 -40 -37 -39 -310 -985 -127
-440 -255 -872 -285 -960 -143 -431 -281 -695 -436 -839 -233 -215 -578 -221
-784 -12 -100 102 -145 211 -145 356 0 143 54 253 150 302 145 76 292 -12 307
-184 7 -75 -11 -137 -53 -187 l-34 -40 32 -25 c73 -55 181 -55 274 -1 59 35
156 144 197 223 59 113 78 184 84 312 4 108 3 121 -27 215 -17 55 -136 454
-265 888 -129 433 -242 804 -250 824 -44 104 -92 134 -209 132 -71 -2 -88 1
-113 19 -64 46 -85 166 -40 233 42 63 103 68 335 28z m-11753 -3810 c23 -11
30 -21 30 -43 0 -43 -36 -50 -164 -30 -160 24 -213 4 -342 -133 -78 -82 -154
-191 -242 -345 -128 -223 -207 -394 -363 -781 -115 -286 -195 -451 -280 -577
-159 -238 -330 -397 -558 -517 l-101 -53 82 0 c167 0 417 46 578 107 342 129
622 391 805 752 21 42 35 60 42 53 11 -11 -29 -94 -109 -225 -287 -463 -769
-716 -1367 -717 -50 0 -137 -7 -193 -15 -118 -17 -166 -8 -161 28 5 31 50 38
166 26 l103 -11 67 41 c277 166 476 470 757 1156 223 543 378 811 584 1008 85
81 150 127 245 174 58 28 73 45 34 36 -249 -55 -558 -280 -882 -643 -197 -220
-330 -391 -581 -745 -287 -406 -457 -616 -661 -817 -120 -118 -286 -258 -306
-258 -24 0 -15 38 30 117 102 182 167 363 336 943 104 356 137 456 198 593
152 348 389 620 656 756 61 31 45 37 -25 11 -250 -93 -527 -303 -757 -573
-185 -219 -308 -399 -654 -962 -268 -435 -342 -538 -496 -681 -134 -126 -248
-185 -391 -203 -136 -17 -240 5 -292 61 -70 75 -49 196 39 225 49 16 88 4 116
-38 31 -45 27 -123 -8 -151 -29 -24 -15 -42 45 -57 113 -29 270 28 412 149
156 133 282 302 553 740 282 454 480 747 614 904 309 364 631 578 1016 676 43
11 85 20 94 20 26 0 18 -19 -11 -32 -229 -92 -357 -197 -495 -403 -124 -185
-187 -335 -361 -855 -186 -559 -279 -780 -408 -974 -32 -49 -59 -94 -59 -100
0 -19 209 197 324 334 151 180 265 332 496 655 367 514 546 730 785 945 303
274 527 395 814 440 78 12 210 6 246 -11z m1070 -44 c100 -44 145 -112 153
-232 12 -190 -105 -401 -645 -1155 -383 -536 -504 -756 -504 -915 0 -142 90
-180 279 -117 206 68 468 258 732 531 230 237 234 244 938 1323 l348 535 117
3 c64 1 117 0 117 -2 0 -12 -1501 -2313 -1573 -2411 -259 -355 -537 -655 -737
-797 -116 -82 -259 -158 -364 -193 -377 -126 -769 -28 -883 221 -87 191 -30
410 136 519 91 61 241 82 357 51 75 -20 174 -67 174 -82 0 -19 -5 -18 -91 12
-157 55 -241 43 -329 -45 -67 -67 -89 -126 -97 -254 -14 -213 91 -362 295
-418 178 -50 359 -9 561 125 247 164 486 442 839 976 342 517 382 579 382 586
0 4 -17 -12 -37 -37 -142 -169 -407 -412 -571 -522 -199 -133 -344 -189 -492
-189 -145 0 -213 33 -263 127 -18 33 -22 56 -22 135 0 83 4 105 33 175 63 158
203 376 552 860 276 382 392 564 484 757 62 129 81 201 74 282 -3 41 -11 63
-29 82 -45 49 -74 57 -178 52 -330 -17 -751 -313 -920 -645 -69 -135 -85 -305
-38 -406 44 -97 127 -131 263 -108 117 21 187 61 292 168 51 53 95 93 99 90
10 -10 -66 -105 -130 -162 -153 -136 -377 -183 -504 -105 -113 68 -153 256
-94 430 111 324 537 676 926 765 85 20 296 14 350 -10z m4143 13 c18 -18 15
-36 -8 -48 -11 -6 -82 -14 -157 -19 -250 -16 -386 -84 -594 -298 -155 -159
-246 -286 -494 -693 -497 -814 -718 -1092 -1034 -1301 -154 -102 -273 -140
-441 -142 -75 -1 -112 4 -168 22 -81 26 -156 84 -178 138 -21 50 -18 115 9
154 29 42 60 59 115 59 36 0 49 -6 72 -30 52 -56 43 -142 -20 -178 -37 -21
-37 -31 -2 -65 111 -107 327 -78 519 69 181 139 323 332 705 959 183 301 385
604 491 735 99 123 265 287 357 352 90 64 204 124 313 164 l92 35 -158 -6
c-440 -15 -974 -105 -1317 -222 -406 -138 -672 -357 -730 -601 -15 -67 -16
-184 -1 -238 18 -66 72 -128 142 -163 52 -26 74 -31 133 -31 210 0 426 130
513 309 24 48 28 68 28 141 0 47 -4 102 -8 123 -7 34 -6 38 9 35 27 -5 46 -80
42 -168 -3 -62 -9 -88 -39 -150 -45 -93 -92 -148 -181 -210 -182 -128 -420
-156 -608 -73 -66 29 -161 121 -195 190 -28 53 -30 67 -30 163 0 79 5 117 19
155 103 271 453 486 1019 625 357 88 701 127 1252 145 186 6 289 21 405 58 56
19 112 21 128 5z m2263 -2 c121 -17 213 -39 282 -69 l49 -20 61 23 c87 32 256
80 284 80 13 0 23 -4 23 -10 0 -5 -8 -10 -18 -10 -52 0 -292 -89 -292 -109 0
-3 20 -19 45 -34 56 -36 134 -121 162 -178 105 -212 48 -506 -132 -685 -125
-123 -292 -190 -537 -215 l-117 -13 49 -28 c137 -78 190 -202 161 -374 -7 -38
-55 -196 -107 -350 -115 -344 -127 -422 -72 -474 46 -42 182 -21 315 50 113
61 178 112 329 264 119 119 146 153 177 216 188 385 586 689 902 690 88 0 131
-12 192 -53 60 -40 108 -130 123 -232 16 -102 64 -170 149 -208 92 -41 262
-17 339 48 16 13 46 52 67 87 81 133 342 533 671 1031 l343 517 111 0 c86 0
110 -3 104 -12 -17 -28 -408 -629 -722 -1110 -421 -645 -473 -727 -548 -874
-97 -192 -106 -305 -30 -372 41 -36 86 -45 157 -32 215 40 521 336 687 666 77
153 98 266 67 354 -27 75 -17 146 24 177 25 19 85 15 113 -7 48 -37 63 -91 63
-236 0 -148 0 -149 79 -193 140 -79 305 -61 426 47 26 22 94 114 155 206 l110
166 108 0 c59 0 107 -3 107 -6 0 -3 -108 -159 -239 -347 -369 -529 -443 -652
-443 -743 0 -176 239 -86 567 213 61 55 135 129 167 164 55 63 189 262 377
561 105 167 97 161 234 156 l79 -3 -226 -314 c-125 -172 -225 -316 -222 -318
2 -2 50 51 107 119 225 268 397 423 555 499 181 88 349 55 400 -77 23 -61 14
-128 -32 -217 -46 -90 -84 -147 -254 -377 -216 -292 -256 -366 -233 -435 13
-42 65 -67 123 -60 156 21 298 114 516 337 150 154 420 483 474 578 6 10 12
12 19 5 14 -14 -187 -290 -332 -455 -101 -114 -300 -308 -372 -363 -139 -105
-275 -156 -375 -141 -177 26 -241 167 -160 352 25 55 103 168 235 337 226 290
253 333 262 420 5 48 3 56 -20 79 -54 54 -178 27 -324 -70 -242 -161 -669
-665 -865 -1021 l-40 -73 -104 0 c-57 0 -104 2 -104 5 0 7 136 229 184 300
l40 60 -109 -98 c-240 -214 -434 -313 -568 -288 -61 11 -92 33 -117 81 -56
109 -6 251 192 552 54 82 95 148 91 146 -96 -48 -110 -51 -198 -52 -105 -1
-148 10 -229 59 -33 20 -62 32 -66 28 -4 -4 -15 -29 -24 -55 -25 -68 -110
-204 -189 -303 -162 -203 -439 -393 -643 -441 -93 -22 -216 -21 -274 1 -109
44 -160 114 -168 232 -7 109 34 227 149 425 22 36 39 69 39 71 0 3 -24 -4 -52
-16 -38 -15 -77 -21 -138 -21 -73 -1 -93 3 -140 26 -30 15 -75 47 -99 72 l-45
45 -31 -83 c-126 -335 -483 -677 -785 -752 -99 -25 -223 -22 -288 6 -109 47
-165 148 -165 298 l0 84 -106 -105 c-136 -135 -233 -208 -346 -262 -113 -54
-179 -69 -288 -63 -73 4 -93 9 -134 34 -84 52 -117 150 -93 270 6 33 56 172
110 309 117 298 134 355 134 460 -1 137 -50 192 -200 226 -93 21 -60 34 87 35
152 0 200 10 315 65 157 74 281 220 345 409 31 88 33 104 34 230 0 127 -2 138
-28 195 -27 58 -81 125 -100 125 -20 0 -145 -102 -218 -177 -140 -145 -301
-377 -614 -888 -238 -388 -287 -463 -423 -645 -133 -178 -323 -375 -452 -469
-170 -125 -326 -181 -499 -181 -178 0 -280 48 -335 157 -24 48 -21 123 7 164
38 57 124 73 184 34 64 -42 38 -195 -34 -195 -29 0 -29 -11 2 -48 39 -46 114
-74 201 -73 283 1 519 251 989 1046 291 493 490 770 720 1001 136 138 288 254
383 293 17 7 32 17 32 21 0 22 -181 74 -310 90 -444 54 -961 -74 -1360 -337
-148 -98 -330 -278 -408 -406 -101 -163 -152 -330 -152 -501 0 -257 120 -409
338 -423 149 -10 295 47 422 164 143 132 231 314 255 526 5 47 10 57 26 57 17
0 18 -6 13 -62 -36 -388 -319 -701 -654 -725 -249 -18 -450 110 -505 322 -22
86 -20 243 5 341 24 93 82 219 145 313 84 125 246 284 388 380 43 29 47 34 31
45 -16 12 -15 15 7 45 33 45 33 133 1 179 -34 47 -76 65 -154 65 -134 0 -236
-81 -532 -428 -317 -371 -500 -529 -750 -646 -97 -45 -245 -86 -348 -96 -37
-3 -68 -9 -68 -12 0 -3 20 -19 45 -34 100 -63 152 -161 162 -302 7 -107 -10
-173 -92 -365 -152 -355 -146 -337 -146 -401 -1 -74 17 -105 70 -119 165 -44
532 208 920 634 66 72 145 164 177 203 31 40 61 70 66 67 19 -12 -208 -280
-397 -469 -332 -332 -623 -505 -804 -479 -179 25 -254 144 -206 328 9 33 65
163 126 290 61 127 122 265 136 306 32 96 35 202 7 251 -28 48 -95 80 -164 79
-100 -3 -102 -2 -98 23 3 21 6 22 133 22 96 1 146 5 190 19 190 57 374 208
694 566 203 228 317 341 424 421 158 118 257 164 389 178 159 17 305 -23 356
-99 19 -29 23 -45 20 -93 -2 -31 -2 -57 -2 -57 1 0 57 27 125 59 207 100 423
166 654 201 149 23 408 25 556 6z m4747 -649 c48 -45 46 -136 -5 -177 -17 -13
-41 -20 -70 -20 -37 0 -50 5 -74 31 -23 25 -29 40 -29 78 0 54 20 87 64 107
38 16 83 9 114 -19z"/>
<path d="M1495 7936 c-82 -19 -106 -29 -144 -62 -61 -51 -61 -51 -61 -519 0
-272 4 -433 10 -445 16 -30 47 -42 134 -50 99 -9 458 15 535 36 131 37 231
148 283 314 33 107 33 312 0 416 -48 154 -130 238 -292 297 -72 26 -370 34
-465 13z"/>
<path d="M11630 7109 c-66 -26 -158 -116 -209 -201 -40 -69 -83 -192 -108
-308 -26 -122 -26 -573 0 -705 51 -259 147 -424 285 -492 50 -24 69 -28 147
-28 77 0 98 4 148 27 162 76 274 303 307 623 15 145 8 457 -14 595 -39 248
-127 405 -267 476 -76 38 -209 44 -289 13z"/>
<path d="M15112 7140 c-265 -56 -386 -401 -360 -1028 20 -499 164 -752 428
-752 105 0 170 28 251 109 110 110 190 305 219 533 15 119 12 416 -5 533 -43
300 -155 510 -307 580 -60 27 -161 39 -226 25z"/>
<path d="M3900 7137 c-124 -29 -219 -109 -284 -241 -53 -109 -80 -202 -80
-280 -1 -64 1 -70 27 -90 27 -20 40 -21 355 -24 363 -4 441 1 474 28 20 16 23
26 21 99 -3 142 -30 234 -104 342 -92 137 -253 202 -409 166z"/>
<path d="M7784 7141 c-187 -45 -345 -293 -393 -616 -30 -201 -22 -468 19 -656
57 -264 194 -458 358 -505 84 -25 203 -16 277 21 115 56 219 196 279 375 82
248 87 670 11 936 -50 175 -152 334 -255 399 -75 48 -204 67 -296 46z"/>
<path d="M13639 2262 c-176 -71 -427 -339 -555 -594 -19 -38 -49 -110 -66
-161 -27 -78 -32 -107 -32 -192 -1 -84 2 -106 21 -140 27 -51 62 -70 127 -69
201 2 468 243 631 569 86 173 125 304 125 421 0 74 -16 118 -54 154 -36 33
-130 38 -197 12z"/>
</g>
</svg>
